<?xml version="1.0" standalone="no"?>
<!DOCTYPE svg PUBLIC "-//W3C//DTD SVG 1.1//EN" "http://www.w3.org/Graphics/SVG/1.1/DTD/svg11.dtd" >
<svg xmlns="http://www.w3.org/2000/svg">
<metadata>Generated by IcoMoon</metadata>
<defs>
<font id="icomoon" horiz-adv-x="512">
<font-face units-per-em="512" ascent="480" descent="-32" />
<missing-glyph horiz-adv-x="512" />
<glyph unicode="&#x20;" d="" horiz-adv-x="256" />
<glyph unicode="&#xe600;" d="M256-32c-141.389 0-256 114.611-256 256s114.611 256 256 256c141.389 0 256-114.611 256-256s-114.611-256-256-256zM256 454.4c-127.245 0-230.4-103.155-230.4-230.4s103.155-230.4 230.4-230.4c127.245 0 230.4 103.155 230.4 230.4s-103.155 230.4-230.4 230.4z" />
<glyph unicode="&#xe601;" d="M256-32c-141.389 0-256 114.611-256 256s114.611 256 256 256c141.389 0 256-114.611 256-256s-114.611-256-256-256zM377.613 345.19l-185.613-185.19-70.4 70.387-38.4-38.387 108.8-108.813 224.013 223.603-38.4 38.4z" />
<glyph unicode="&#xe602;" d="M478.255 136.146c8.041-11.346 12.8-25.17 12.8-40.146 0-38.563-31.255-69.818-69.818-69.818-31.034 0-57.274 20.27-66.351 48.279l-31.43-15.721c-4.422 11.59-6.947 24.122-6.947 37.26h-139.637c0-38.563-31.256-69.818-69.818-69.818s-69.818 31.255-69.818 69.818h-34.909c0 0 0.477 74.101 30.441 128h-30.441v197.818h244.363v-197.818h-32l8.727-69.818h111.325c2.793 4.108 5.911 7.947 9.192 11.637h-4.154v104.728h-17.454c-22.493 0-40.728 18.234-40.728 40.727v11.637c0 22.493 18.234 40.727 40.728 40.727h17.454v11.637l34.909 5.818v5.818h46.546v-128h-11.637v-58.984c3.805 0.5 7.68 0.803 11.637 0.803 37.272 0 69.911-19.526 88.471-48.849l-31.453-15.733zM421.236 49.454c25.704 0 46.546 20.841 46.546 46.546 0 11.264-4.096 21.493-10.764 29.533l-80.907-40.459c4.934-20.41 23.203-35.619 45.126-35.619zM107.055 49.454c25.705 0 46.545 20.841 46.545 46.546h-93.091c0-25.704 20.841-46.546 46.545-46.546zM223.418 247.273v151.273h-69.818v-93.091h-23.273v-11.637h-23.273v104.728h-81.454v-151.273h197.818zM397.964 363.637h-11.637v-93.091h11.637v93.091zM397.964 258.909h-4.282c2.304-0.082 4.282-0.279 4.282-0.721 0-0.058 0 0.349 0 0.721zM421.236 177.454c-8.087 0-15.907-1.187-23.272-3.386v3.386h-11.637v81.454h-11.637v96.966l-11.637-3.875v-11.637h-40.728c-9.635 0-17.454-7.82-17.454-17.454v-11.637c0-9.635 7.82-17.454 17.454-17.454h40.728v-141.173c-6.19-6.365-11.474-13.626-15.325-21.736h-148.875l-10.345 93.091h-128c-28.462-27.368-34.909-104.728-34.909-104.728h317.603c-2.2-7.377-3.421-15.174-3.421-23.272l130.048 65.024c-13.591 10.182-30.301 16.43-48.594 16.43z" />
<glyph unicode="&#xe603;" d="M349.091-32v23.272h139.637v139.637h23.272v-162.909h-162.909zM430.546 37.818v372.363h11.637v-372.363h-11.637zM360.728 37.818v372.363h34.909v-372.363h-34.909zM488.728 456.728h-139.637v23.272h162.909v-162.909h-23.272v139.637zM290.909 410.182h11.637v-372.363h-11.637v372.363zM232.727 410.182h11.637v-372.363h-11.637v372.363zM174.546 410.182h34.909v-372.363h-34.909v372.363zM0 130.909h23.273v-139.637h139.637v-23.272h-162.909v162.909zM128 37.818v372.363h11.637v-372.363h-11.637zM69.818 37.818v372.363h34.909v-372.363h-34.909zM23.273 317.091h-23.273v162.909h162.909v-23.272h-139.637v-139.637z" />
<glyph unicode="&#xe604;" d="M398.907 223.37l-242.412-242.432-36.392 38.873 206.021 206.021-213.405 201.098 40.074 40.074 246.114-243.633z" />
<glyph unicode="&#xe605;" d="M256-32c-141.392 0-256 114.608-256 256s114.608 256 256 256c141.392 0 256-114.608 256-256s-114.608-256-256-256zM384 256h-96v96h-64v-160h160v64z" />
<glyph unicode="&#xe606;" d="M413.856 354.272c-40.064-34.224-127.904-21.184-126.192-45.808 0.832-11.888 10.992-44.496 97.152-21.744-54.432-91.568-139.824-60.112-160.752-89.904-10.384-14.8 39.728-46.144 64.832-35.856-41.12-77.248-69.36-57.744-129.392-64.448v-96.64c0-17.6-14.416-31.872-32.176-31.872s-32.16 14.272-32.16 31.872v95.632h-2.624c0.864 3.472 1.68 6.88 2.624 10.448v4.096c-24.592 65.904-46.992 118.64-17.248 174.976 10.528-29.44 51.088-125.968 65.712-123.52 46.976 7.856-41.040 144.256-10.208 220.048 15.968 39.232 84.16 73.328 122.56 98.72-24.624-36.848-47.36-126.88-21.488-125.968 15.984 0.576 66.192 131.104 99.904 124.176 32.48-6.688 82.288-30.976 100.352-40.848 30.16-16.496 2.32-63.52-20.896-83.36z" />
<glyph unicode="&#xe607;" d="M256-32c141.392 0 256 114.624 256 256 0 141.392-114.608 256-256 256-141.376 0-256-114.608-256-256 0-141.376 114.624-256 256-256zM288 165.888v-5.888h-64v48c0 8.832 7.168 16 16 16 20.944 0 16 0 16 0 17.68 0 32 14.32 32 32s-14.32 32-32 32c-17.68 0-32-14.32-32-32h-64c0 53.024 42.976 96 96 96s96-42.976 96-96c0-41.744-26.8-76.896-64-90.112zM288 128v-32h-64v32h64z" />
<glyph unicode="&#xe608;" d="M256-32c-141.382 0-256 114.618-256 256s114.618 256 256 256c141.382 0 256-114.618 256-256s-114.618-256-256-256zM256 433.454c-115.689 0-209.454-93.766-209.454-209.454s93.766-209.454 209.454-209.454c115.688 0 209.454 93.766 209.454 209.454s-93.766 209.454-209.454 209.454zM256 37.818c-102.819 0-186.182 83.363-186.182 186.182s83.363 186.182 186.182 186.182c102.819 0 186.182-83.363 186.182-186.182s-83.363-186.182-186.182-186.182zM256 363.637c-12.846 0-23.273-10.426-23.273-23.272s10.426-23.273 23.273-23.273c12.846 0 23.272 10.426 23.272 23.273s-10.426 23.272-23.273 23.272zM279.272 270.546h-46.546v-186.182h46.546v186.182z" />
<glyph unicode="&#xe609;" d="M256-32c-141.376 0-256 114.624-256 256 0 141.392 114.624 256 256 256 141.392 0 256-114.608 256-256 0-141.376-114.608-256-256-256zM256 416c-106.032 0-192-85.968-192-192s85.968-192 192-192c106.032 0 192 85.968 192 192s-85.968 192-192 192zM224 160h64v-64h-64v64zM224 352h64v-160h-64v160z" />
<glyph unicode="&#xe60a;" d="M256-32c141.392 0 256 114.608 256 256s-114.608 256-256 256c-141.376 0-256-114.608-256-256s114.624-256 256-256zM224 160h64v-64h-64v64zM224 352h64v-160h-64v160z" />
<glyph unicode="&#xe60b;" d="M442.288 123.664c-31.072 26.496-62.624 42.544-93.328 16.080l-18.336-15.984c-13.408-11.616-38.336-65.84-134.752 44.72-96.384 110.416-39.040 127.616-25.6 139.12l18.416 16.016c30.56 26.512 19.024 59.904-3.008 94.256l-13.296 20.816c-22.096 34.288-46.192 56.8-76.8 30.336l-16.544-14.432c-13.536-9.824-51.36-41.76-60.528-102.448-11.040-72.8 23.776-156.192 103.6-247.68 79.696-91.52 157.76-137.488 231.68-136.688 61.424 0.656 98.544 33.52 110.144 45.472l16.608 14.432c30.528 26.464 11.568 53.392-19.52 79.952l-18.736 16.032z" />
<glyph unicode="&#xe60c;" d="M254.912-32c0 0-174.912 225.008-174.912 320.992 0 189.008 174.912 191.008 174.912 191.008s177.088-2 177.088-190c0-99.008-177.088-322-177.088-322zM256 352c-26.512 0-48-21.488-48-48s21.488-48 48-48c26.512 0 48 21.488 48 48s-21.488 48-48 48z" />
<glyph unicode="&#xe60d;" d="M352-32v32h128v128h32v-160h-160zM0 240h512v-32h-512v32zM480 448h-128v32h160v-160h-32v128zM32 320h-32v160h160v-32h-128v-128zM32 0h128v-32h-160v160h32v-128z" />
<glyph unicode="&#xe60e;" d="M464 480h-416c-26.512 0-48-21.488-48-48v-416c0-26.512 21.488-48 48-48h416c26.512 0 48 21.488 48 48v416c0 26.512-21.488 48-48 48zM96 448h208v-128l47.232 32 48.768-32v128h48c17.68 0 32-14.32 32-32v-240h-384v272zM32 416c0 17.68 14.32 32 32 32v-272c-11.808 0-22.608-1.552-32-4.656v244.656zM480 112v-80c0-15.696-16.208-32-32.224-32-97.664 0-383.776 0-383.776 0-17.68 0-32 14.32-32 32v80c0 17.68 14.32 32 32 32h416c0.176 0 0-14.32 0-32zM432 64h-352c-8.832 0-16-7.168-16-16s7.168-16 16-16h352c8.832 0 16 7.168 16 16s-7.168 16-16 16zM432 112h-352c-8.832 0-16-7.168-16-16s7.168-16 16-16h352c8.832 0 16 7.168 16 16s-7.168 16-16 16z" />
<glyph unicode="&#xe60f;" d="M352 96h-192c-8.832 0-16-7.168-16-16s7.168-16 16-16h192c8.832 0 16 7.168 16 16s-7.168 16-16 16zM416 400h-32c0 17.664-14.32 32-32 32h-16v16c0 17.664-14.32 32-32 32h-96c-17.68 0-32-14.336-32-32v-16h-16c-17.68 0-32-14.336-32-32h-32c-26.512 0-48-21.488-48-48v-336c0-26.512 21.488-48 48-48h320c26.512 0 48 21.488 48 48v336c0 26.512-21.488 48-48 48zM184 400h24v16c0 17.68 14.32 32 32 32h32c17.68 0 32-14.32 32-32v-16h24c13.248 0 24-10.752 24-24s-10.752-24-24-24h-144c-13.248 0-24 10.752-24 24s10.752 24 24 24zM432 32c0-17.664-14.32-32-32-32h-288c-17.664 0-32 14.336-32 32v304c0 17.664 14.336 32 32 32h16v-16c0-17.68 14.32-32 32-32h192c19.44 0 26.352 16.64 31.312 32.464 1.728 5.536 0.688 10.96 0.688 15.536h16c17.68 0 32-14.336 32-32v-304zM352 176h-192c-8.832 0-16-7.168-16-16s7.168-16 16-16h192c8.832 0 16 7.168 16 16s-7.168 16-16 16zM352 256h-192c-8.832 0-16-7.168-16-16s7.168-16 16-16h192c8.832 0 16 7.168 16 16s-7.168 16-16 16z" />
<glyph unicode="&#xe610;" d="M416-32h-320c-26.512 0-48 21.488-48 48v224c0 26.512 21.488 48 48 48h16v48c0 79.536 64.656 144 144.416 144 74.336 0 135.488-56.016 143.488-128h-32.432c-7.792 54.256-54.48 96-111.056 96-62.048 0-112.336-50.144-112.336-112v-48h271.92c26.512 0 48-21.488 48-48v-224c0-26.512-21.488-48-48-48zM432 224c0 17.664-14.32 32-32 32h-288c-17.68 0-32-14.336-32-32v-192c0-17.68 14.32-32 32-32h288c17.68 0 32 14.32 32 32v192zM256 64c-35.344 0-64 28.656-64 64s28.656 64 64 64c35.344 0 64-28.656 64-64s-28.656-64-64-64zM256 160c-17.68 0-32-14.336-32-32 0-17.68 14.32-32 32-32s32 14.32 32 32c0 17.664-14.32 32-32 32z" />
<glyph unicode="&#xe611;" d="M272 32.72v-32.72h16c8.832 0 16-7.168 16-16s-7.168-16-16-16h-64c-8.832 0-16 7.168-16 16s7.168 16 16 16h16v32.72c-78.992 7.12-145.872 66.496-160 143.28 0 8.832 7.168 16 16 16s16-7.168 16-16c14.56-64.112 75.488-112 144-112s129.44 47.888 144 112c0 8.832 7.168 16 16 16s16-7.168 16-16c-14.128-76.784-81.008-136.16-160-143.28zM256 96c-61.856 0-112 50.144-112 112v160c0 61.856 50.144 112 112 112s112-50.144 112-112v-160c0-61.856-50.144-112-112-112zM336 368c0 44.176-35.824 80-80 80s-80-35.824-80-80v-160c0-44.192 35.824-80 80-80s80 35.808 80 80v160z" />
<glyph unicode="&#xe612;" d="M176 48c8.832 0 16 7.168 16 16v192c0 8.832-7.168 16-16 16s-16-7.168-16-16v-192c0-8.832 7.168-16 16-16zM336 48c8.832 0 16 7.168 16 16v192c0 8.832-7.168 16-16 16s-16-7.168-16-16v-192c0-8.832 7.168-16 16-16zM256 48c8.832 0 16 7.168 16 16v192c0 8.832-7.168 16-16 16s-16-7.168-16-16v-192c0-8.832 7.168-16 16-16zM448 416h-96v32c0 17.664-14.32 32-32 32h-128c-17.68 0-32-14.336-32-32v-32h-96c-17.68 0-32-14.336-32-32v-32c0-17.68 14.32-32 32-32h384c17.68 0 32 14.32 32 32v32c0 17.664-14.32 32-32 32zM208 448h96c8.832 0 16-7.168 16-16s-7.168-16-16-16h-96c-8.832 0-16 7.168-16 16s7.168 16 16 16zM432 352h-352c-8.832 0-16 7.168-16 16s7.168 16 16 16h352c8.832 0 16-7.168 16-16s-7.168-16-16-16zM64 16c0-26.512 21.488-48 48-48h288c26.512 0 48 21.488 48 48v304h-384v-304zM96 320h320v-288c0-17.68-14.32-32-32-32h-256c-17.68 0-32 14.32-32 32v288z" />
<glyph unicode="&#xe613;" d="M480-32h-448c-17.68 0-32 14.336-32 32 0 0 44.544 125.712 192 160-26.224 39.936-64 102.96-64 192 0.592 111.904 57.312 128 128 128s128.64-22.496 128-128c0-87.28-41.104-156.736-64-192 147.44-34.288 192-160 192-160 0-17.664-14.32-32-32-32z" />
<glyph unicode="&#xe614;" d="M491.52 96h-22.436c-6.963 29.317-33.157 51.2-64.604 51.2s-57.641-21.883-64.604-51.2h-12.196c-11.315 0-20.48 9.165-20.48 20.48v204.8c0 11.315 9.165 20.48 20.48 20.48 27.106 0 74.68 0 102.4 0 17.562-24.422 72.837-100.167 81.92-112.64 0-42.844 0-87.481 0-112.64 0-11.315-9.165-20.48-20.48-20.48zM409.6 311.040c-26.358 0-51.2 0-51.2 0v-81.92h112.64c0 0-36.69 48.005-61.44 81.92zM266.24 96h-73.636c-6.963 29.317-33.157 51.2-64.604 51.2s-57.641-21.883-64.604-51.2h-42.916c-11.315 0-20.48 9.165-20.48 20.48v112.64h286.72v-112.64c0-11.315-9.165-20.48-20.48-20.48zM0 392.96c0 11.315 9.165 20.48 20.48 20.48h245.76c11.315 0 20.48-9.165 20.48-20.48v-143.36h-286.72v143.36zM128 126.72c25.447 0 46.080-20.634 46.080-46.080s-20.633-46.080-46.080-46.080c-25.447 0-46.080 20.634-46.080 46.080s20.633 46.080 46.080 46.080zM404.48 126.72c25.447 0 46.080-20.634 46.080-46.080s-20.634-46.080-46.080-46.080c-25.447 0-46.080 20.634-46.080 46.080s20.634 46.080 46.080 46.080z" />
</font>
</defs>
</svg>
